REM DIRINDEX 1\2,1\4,1\3\5,1\3\6,1\3\7
REM DIRNAME folder01,folder02,folder03,folder04,folder05,folder06,folder07
TITLE ""
FILE "CD1Track45.mp3" MP3
  TRACK 01 AUDIO
    TITLE "0:"
    INDEX 01 00:00:00
  TRACK 02 AUDIO
    TITLE "5:cjc081_0794"
    INDEX 01 00:00:25
  TRACK 03 AUDIO
    TITLE "0:"
    INDEX 01 00:01:48
  TRACK 04 AUDIO
    TITLE "6:cjc081_0795"
    INDEX 01 00:02:20
  TRACK 05 AUDIO
    TITLE "0:"
    INDEX 01 00:04:46
  TRACK 06 AUDIO
    TITLE "5:cjc081_0796"
    INDEX 01 00:05:14
  TRACK 07 AUDIO
    TITLE "0:"
    INDEX 01 00:06:49
  TRACK 08 AUDIO
    TITLE "6:cjc081_0797"
    INDEX 01 00:07:15
  TRACK 09 AUDIO
    TITLE "0:"
    INDEX 01 00:08:19
  TRACK 10 AUDIO
    TITLE "5:cjc081_0798"
    INDEX 01 00:08:64
  TRACK 11 AUDIO
    TITLE "0:"
    INDEX 01 00:10:04
  TRACK 12 AUDIO
    TITLE "6:cjc081_0799"
    INDEX 01 00:10:57
  TRACK 13 AUDIO
    TITLE "0:"
    INDEX 01 00:12:24
  TRACK 14 AUDIO
    TITLE "5:cjc081_0800"
    INDEX 01 00:12:67
  TRACK 15 AUDIO
    TITLE "0:"
    INDEX 01 00:14:29
  TRACK 16 AUDIO
    TITLE "6:cjc081_0801"
    INDEX 01 00:15:05
  TRACK 17 AUDIO
    TITLE "0:"
    INDEX 01 00:16:22
  TRACK 18 AUDIO
    TITLE "5:cjc081_0802"
    INDEX 01 00:16:65
  TRACK 19 AUDIO
    TITLE "0:"
    INDEX 01 00:18:07
  TRACK 20 AUDIO
    TITLE "6:cjc081_0803"
    INDEX 01 00:18:50
  TRACK 21 AUDIO
    TITLE "0:"
    INDEX 01 00:20:39
  TRACK 22 AUDIO
    TITLE "5:cjc081_0804"
    INDEX 01 00:21:09
  TRACK 23 AUDIO
    TITLE "0:"
    INDEX 01 00:22:48
  TRACK 24 AUDIO
    TITLE "6:cjc081_0805"
    INDEX 01 00:23:20
  TRACK 25 AUDIO
    TITLE "0:"
    INDEX 01 00:25:56
  TRACK 26 AUDIO
    TITLE "5:cjc081_0806"
    INDEX 01 00:26:28
  TRACK 27 AUDIO
    TITLE "0:"
    INDEX 01 00:27:47
  TRACK 28 AUDIO
    TITLE "6:cjc081_0807"
    INDEX 01 00:28:15
  TRACK 29 AUDIO
    TITLE "0:"
    INDEX 01 00:32:05
  TRACK 30 AUDIO
    TITLE "5:cjc081_0808"
    INDEX 01 00:32:47
  TRACK 31 AUDIO
    TITLE "0:"
    INDEX 01 00:33:60
  TRACK 32 AUDIO
    TITLE "6:cjc081_0809"
    INDEX 01 00:34:32
  TRACK 33 AUDIO
    TITLE "0:"
    INDEX 01 00:35:29
  TRACK 34 AUDIO
    TITLE "5:cjc081_0810"
    INDEX 01 00:35:74
  TRACK 35 AUDIO
    TITLE "0:"
    INDEX 01 00:37:16
  TRACK 36 AUDIO
    TITLE "6:cjc081_0811"
    INDEX 01 00:37:63
  TRACK 37 AUDIO
    TITLE "0:"
    INDEX 01 00:38:67
  TRACK 38 AUDIO
    TITLE "5:cjc081_0812"
    INDEX 01 00:39:41
  TRACK 39 AUDIO
    TITLE "0:"
    INDEX 01 00:40:58
  TRACK 40 AUDIO
    TITLE "6:cjc081_0813"
    INDEX 01 00:41:30
  TRACK 41 AUDIO
    TITLE "0:"
    INDEX 01 00:42:45
  TRACK 42 AUDIO
    TITLE "5:cjc081_0814"
    INDEX 01 00:43:15
  TRACK 43 AUDIO
    TITLE "0:"
    INDEX 01 00:45:41
  TRACK 44 AUDIO
    TITLE "6:cjc081_0815"
    INDEX 01 00:46:13
  TRACK 45 AUDIO
    TITLE "0:"
    INDEX 01 00:48:71
  TRACK 46 AUDIO
    TITLE "5:cjc081_0816"
    INDEX 01 00:49:41
  TRACK 47 AUDIO
    TITLE "0:"
    INDEX 01 00:50:64
  TRACK 48 AUDIO
    TITLE "6:cjc081_0817"
    INDEX 01 00:51:36
  TRACK 49 AUDIO
    TITLE "0:"
    INDEX 01 00:53:02
  TRACK 50 AUDIO
    TITLE "5:cjc081_0818"
    INDEX 01 00:53:51
  TRACK 51 AUDIO
    TITLE "0:"
    INDEX 01 00:55:04
  TRACK 52 AUDIO
    TITLE "6:cjc081_0819"
    INDEX 01 00:55:50
  TRACK 53 AUDIO
    TITLE "0:"
    INDEX 01 00:56:63
  TRACK 54 AUDIO
    TITLE "5:cjc081_0820"
    INDEX 01 00:57:33
  TRACK 55 AUDIO
    TITLE "0:"
    INDEX 01 00:58:60
  TRACK 56 AUDIO
    TITLE "6:cjc081_0821"
    INDEX 01 00:59:34
  TRACK 57 AUDIO
    TITLE "0:"
    INDEX 01 01:01:36
  TRACK 58 AUDIO
    TITLE "7:cjc081_0822"
    INDEX 01 01:03:02
  TRACK 59 AUDIO
    TITLE "0:"
    INDEX 01 01:13:38
